# MagicaVoxel @ Ephtracy

# group
o 

# material
mtllib playerCat.vox.mtl
usemtl palette

# normals
vn -1 0 0
vn 1 0 0
vn 0 0 1
vn 0 0 -1
vn 0 -1 0
vn 0 1 0

# texcoords
vt 0.0292969 0.5
vt 0.876953 0.5
vt 0.958984 0.5
vt 0.982422 0.5
vt 0.994141 0.5

# verts
v -1.5 1.1 0.6
v -1.5 1.1 0.5
v -1.5 1.2 0.6
v -1.5 1.2 0.5
v -1.4 0.8 0.6
v -1.4 0.8 0.5
v -1.4 1.1 0.6
v -1.4 1.1 0.5
v -1.3 0.7 0.6
v -1.3 0.7 0.5
v -1.3 0.8 0.6
v -1.3 0.8 0.5
v -1 0.5 0.7
v -1 0.5 0.4
v -1 0.6 0.8
v -1 0.6 0.7
v -1 0.6 0.4
v -1 0.6 0.3
v -1 0.7 0.8
v -1 0.7 0.6
v -1 0.7 0.5
v -1 0.7 0.3
v -0.9 0 0.9
v -0.9 0 0.7
v -0.9 0 0.4
v -0.9 0 0.2
v -0.9 0.2 0.9
v -0.9 0.2 0.7
v -0.9 0.2 0.4
v -0.9 0.2 0.2
v -0.9 0.3 0.7
v -0.9 0.3 0.4
v -0.9 0.5 0.7
v -0.9 0.5 0.4
v -0.9 0.6 0.9
v -0.9 0.6 0.8
v -0.9 0.6 0.7
v -0.9 0.6 0.4
v -0.9 0.6 0.3
v -0.9 0.6 0.2
v -0.8 0.6 0.9
v -0.8 0.6 0.8
v -0.8 0.6 0.3
v -0.8 0.6 0.2
v -0.8 0.7 0.9
v -0.8 0.7 0.8
v -0.8 0.7 0.3
v -0.8 0.7 0.2
v -0.4 0.7 0.9
v -0.4 0.7 0.2
v -0.4 0.8 1
v -0.4 0.8 0.9
v -0.4 0.8 0.2
v -0.4 0.8 0.1
v -0.4 1.2 1
v -0.4 1.2 0.9
v -0.4 1.2 0.2
v -0.4 1.2 0.1
v -0.4 1.3 0.9
v -0.4 1.3 0.2
v -0.3 0.7 1
v -0.3 0.7 0.9
v -0.3 0.7 0.2
v -0.3 0.7 0.1
v -0.3 0.8 1
v -0.3 0.8 0.9
v -0.3 0.8 0.2
v -0.3 0.8 0.1
v -0.3 1.2 1
v -0.3 1.2 0.9
v -0.3 1.2 0.2
v -0.3 1.2 0.1
v -0.3 1.3 1
v -0.3 1.3 0.9
v -0.3 1.3 0.2
v -0.3 1.3 0.1
v -0.1 0 0.9
v -0.1 0 0.7
v -0.1 0 0.4
v -0.1 0 0.2
v -0.1 0.2 0.9
v -0.1 0.2 0.7
v -0.1 0.2 0.4
v -0.1 0.2 0.2
v -0.1 0.3 0.9
v -0.1 0.3 0.8
v -0.1 0.3 0.7
v -0.1 0.3 0.4
v -0.1 0.3 0.2
v -0.1 1.3 1
v -0.1 1.3 0.7
v -0.1 1.3 0.4
v -0.1 1.3 0.1
v -0.1 1.4 0.8
v -0.1 1.4 0.7
v -0.1 1.4 0.4
v -0.1 1.4 0.3
v -0.1 1.5 1
v -0.1 1.5 0.8
v -0.1 1.5 0.3
v -0.1 1.5 0.1
v 0 0.8 1.1
v 0 0.8 1
v 0 0.8 0.1
v 0 0.8 0
v 0 0.9 1.1
v 0 0.9 1
v 0 0.9 0.1
v 0 0.9 0
v 0 1 1.1
v 0 1 1
v 0 1 0.1
v 0 1 0
v 0 1.1 1.1
v 0 1.1 1
v 0 1.1 0.1
v 0 1.1 0
v -1.3 0.9 0.6
v -1.3 0.9 0.5
v -1.3 1.2 0.6
v -1.3 1.2 0.5
v -1.2 0.8 0.6
v -1.2 0.8 0.5
v -1.2 0.9 0.6
v -1.2 0.9 0.5
v -0.9 0.7 0.6
v -0.9 0.7 0.5
v -0.9 0.8 0.6
v -0.9 0.8 0.5
v -0.7 0 0.9
v -0.7 0 0.7
v -0.7 0 0.4
v -0.7 0 0.2
v -0.7 0.2 0.9
v -0.7 0.2 0.7
v -0.7 0.2 0.4
v -0.7 0.2 0.2
v -0.7 0.3 0.9
v -0.7 0.3 0.7
v -0.7 0.3 0.4
v -0.7 0.3 0.2
v 0.1 0 0.9
v 0.1 0 0.7
v 0.1 0 0.4
v 0.1 0 0.2
v 0.1 0.2 0.9
v 0.1 0.2 0.7
v 0.1 0.2 0.4
v 0.1 0.2 0.2
v 0.1 0.3 0.8
v 0.1 0.3 0.7
v 0.1 0.3 0.4
v 0.1 0.3 0.2
v 0.1 0.4 0.7
v 0.1 0.4 0.4
v 0.1 0.5 0.9
v 0.1 0.5 0.8
v 0.1 0.5 0.7
v 0.1 0.5 0.4
v 0.1 0.5 0.3
v 0.1 0.5 0.2
v 0.1 0.6 0.3
v 0.1 0.6 0.2
v 0.1 0.8 1.1
v 0.1 0.8 1
v 0.1 0.8 0.1
v 0.1 0.8 0
v 0.1 0.9 1.1
v 0.1 0.9 1
v 0.1 0.9 0.1
v 0.1 0.9 0
v 0.1 1 1.1
v 0.1 1 1
v 0.1 1 0.1
v 0.1 1 0
v 0.1 1.1 1.1
v 0.1 1.1 1
v 0.1 1.1 0.1
v 0.1 1.1 0
v 0.1 1.3 1
v 0.1 1.3 0.9
v 0.1 1.3 0.8
v 0.1 1.3 0.7
v 0.1 1.3 0.4
v 0.1 1.3 0.3
v 0.1 1.3 0.2
v 0.1 1.3 0.1
v 0.1 1.4 0.9
v 0.1 1.4 0.8
v 0.1 1.4 0.7
v 0.1 1.4 0.4
v 0.1 1.4 0.3
v 0.1 1.4 0.2
v 0.1 1.5 1
v 0.1 1.5 0.8
v 0.1 1.5 0.3
v 0.1 1.5 0.1
v 0.2 0.4 0.7
v 0.2 0.4 0.4
v 0.2 0.5 0.9
v 0.2 0.5 0.7
v 0.2 0.5 0.4
v 0.2 0.5 0.3
v 0.2 0.6 0.3
v 0.2 0.6 0.2
v 0.2 0.7 1
v 0.2 0.7 0.9
v 0.2 0.7 0.2
v 0.2 0.7 0.1
v 0.2 0.8 1
v 0.2 0.8 0.9
v 0.2 0.8 0.2
v 0.2 0.8 0.1
v 0.2 1.2 1
v 0.2 1.2 0.9
v 0.2 1.2 0.2
v 0.2 1.2 0.1
v 0.2 1.3 1
v 0.2 1.3 0.9
v 0.2 1.3 0.2
v 0.2 1.3 0.1
v 0.3 0.7 0.9
v 0.3 0.7 0.2
v 0.3 0.8 1
v 0.3 0.8 0.9
v 0.3 0.8 0.7
v 0.3 0.8 0.6
v 0.3 0.8 0.5
v 0.3 0.8 0.4
v 0.3 0.8 0.2
v 0.3 0.8 0.1
v 0.3 0.9 0.7
v 0.3 0.9 0.6
v 0.3 0.9 0.5
v 0.3 0.9 0.4
v 0.3 1 0.9
v 0.3 1 0.8
v 0.3 1 0.6
v 0.3 1 0.5
v 0.3 1 0.3
v 0.3 1 0.2
v 0.3 1.1 0.9
v 0.3 1.1 0.8
v 0.3 1.1 0.3
v 0.3 1.1 0.2
v 0.3 1.2 1
v 0.3 1.2 0.9
v 0.3 1.2 0.2
v 0.3 1.2 0.1
v 0.3 1.3 0.9
v 0.3 1.3 0.2
v 0.4 0.8 0.7
v 0.4 0.8 0.6
v 0.4 0.8 0.5
v 0.4 0.8 0.4
v 0.4 0.9 0.7
v 0.4 0.9 0.6
v 0.4 0.9 0.5
v 0.4 0.9 0.4
v 0.4 1 0.6
v 0.4 1 0.5
v 0 0.8 1.1
v 0 0.9 1.1
v 0 1 1.1
v 0 1.1 1.1
v 0.1 0.8 1.1
v 0.1 0.9 1.1
v 0.1 1 1.1
v 0.1 1.1 1.1
v -0.4 0.8 1
v -0.4 1.2 1
v -0.3 0.7 1
v -0.3 0.8 1
v -0.3 1.2 1
v -0.3 1.3 1
v -0.1 1.3 1
v -0.1 1.5 1
v 0 0.8 1
v 0 0.9 1
v 0 1 1
v 0 1.1 1
v 0.1 0.8 1
v 0.1 0.9 1
v 0.1 1 1
v 0.1 1.1 1
v 0.1 1.3 1
v 0.1 1.5 1
v 0.2 0.7 1
v 0.2 0.8 1
v 0.2 1.2 1
v 0.2 1.3 1
v 0.3 0.8 1
v 0.3 1.2 1
v -0.9 0 0.9
v -0.9 0.2 0.9
v -0.9 0.6 0.9
v -0.8 0.6 0.9
v -0.8 0.7 0.9
v -0.7 0 0.9
v -0.7 0.2 0.9
v -0.7 0.3 0.9
v -0.4 0.7 0.9
v -0.4 0.8 0.9
v -0.4 1.2 0.9
v -0.4 1.3 0.9
v -0.3 0.7 0.9
v -0.3 0.8 0.9
v -0.3 1.2 0.9
v -0.3 1.3 0.9
v -0.1 0 0.9
v -0.1 0.2 0.9
v -0.1 0.3 0.9
v 0.1 0 0.9
v 0.1 0.2 0.9
v 0.1 0.5 0.9
v 0.2 0.5 0.9
v 0.2 0.7 0.9
v 0.2 0.8 0.9
v 0.2 1.2 0.9
v 0.2 1.3 0.9
v 0.3 0.7 0.9
v 0.3 0.8 0.9
v 0.3 1.2 0.9
v 0.3 1.3 0.9
v -1 0.6 0.8
v -1 0.7 0.8
v -0.9 0.6 0.8
v -0.8 0.6 0.8
v -0.8 0.7 0.8
v -1 0.5 0.7
v -1 0.6 0.7
v -0.9 0.5 0.7
v -0.9 0.6 0.7
v 0.1 0.4 0.7
v 0.1 0.5 0.7
v 0.2 0.4 0.7
v 0.2 0.5 0.7
v 0.3 0.8 0.7
v 0.3 0.9 0.7
v 0.4 0.8 0.7
v 0.4 0.9 0.7
v -1.5 1.1 0.6
v -1.5 1.2 0.6
v -1.4 0.8 0.6
v -1.4 1.1 0.6
v -1.4 1.2 0.6
v -1.3 0.7 0.6
v -1.3 0.8 0.6
v -1.3 0.9 0.6
v -1.3 1.2 0.6
v -1.2 0.8 0.6
v -1.2 0.9 0.6
v -1 0.7 0.6
v -0.9 0.7 0.6
v -0.9 0.8 0.6
v 0.3 0.9 0.6
v 0.3 1 0.6
v 0.4 0.9 0.6
v 0.4 1 0.6
v 0.3 0.8 0.5
v 0.3 0.9 0.5
v 0.4 0.8 0.5
v 0.4 0.9 0.5
v -0.9 0 0.4
v -0.9 0.2 0.4
v -0.9 0.3 0.4
v -0.7 0 0.4
v -0.7 0.2 0.4
v -0.7 0.3 0.4
v -0.1 0 0.4
v -0.1 0.2 0.4
v -0.1 0.3 0.4
v -0.1 1.3 0.4
v -0.1 1.4 0.4
v 0.1 0 0.4
v 0.1 0.2 0.4
v 0.1 0.3 0.4
v 0.1 1.3 0.4
v 0.1 1.4 0.4
v -0.1 1.4 0.3
v -0.1 1.5 0.3
v 0.1 1.4 0.3
v 0.1 1.5 0.3
v -0.1 1.4 0.8
v -0.1 1.5 0.8
v 0.1 1.4 0.8
v 0.1 1.5 0.8
v -0.9 0 0.7
v -0.9 0.2 0.7
v -0.9 0.3 0.7
v -0.7 0 0.7
v -0.7 0.2 0.7
v -0.7 0.3 0.7
v -0.1 0 0.7
v -0.1 0.2 0.7
v -0.1 0.3 0.7
v -0.1 1.3 0.7
v -0.1 1.4 0.7
v 0.1 0 0.7
v 0.1 0.2 0.7
v 0.1 0.3 0.7
v 0.1 1.3 0.7
v 0.1 1.4 0.7
v 0.3 0.8 0.6
v 0.3 0.9 0.6
v 0.4 0.8 0.6
v 0.4 0.9 0.6
v -1.5 1.1 0.5
v -1.5 1.2 0.5
v -1.4 0.8 0.5
v -1.4 1.1 0.5
v -1.4 1.2 0.5
v -1.3 0.7 0.5
v -1.3 0.8 0.5
v -1.3 0.9 0.5
v -1.3 1.2 0.5
v -1.2 0.8 0.5
v -1.2 0.9 0.5
v -1 0.7 0.5
v -0.9 0.7 0.5
v -0.9 0.8 0.5
v 0.3 0.9 0.5
v 0.3 1 0.5
v 0.4 0.9 0.5
v 0.4 1 0.5
v -1 0.5 0.4
v -1 0.6 0.4
v -0.9 0.5 0.4
v -0.9 0.6 0.4
v 0.1 0.4 0.4
v 0.1 0.5 0.4
v 0.2 0.4 0.4
v 0.2 0.5 0.4
v 0.3 0.8 0.4
v 0.3 0.9 0.4
v 0.4 0.8 0.4
v 0.4 0.9 0.4
v -1 0.6 0.3
v -1 0.7 0.3
v -0.9 0.6 0.3
v -0.8 0.6 0.3
v -0.8 0.7 0.3
v 0.1 0.5 0.3
v 0.1 0.6 0.3
v 0.2 0.5 0.3
v 0.2 0.6 0.3
v -0.9 0 0.2
v -0.9 0.2 0.2
v -0.9 0.6 0.2
v -0.8 0.6 0.2
v -0.8 0.7 0.2
v -0.7 0 0.2
v -0.7 0.2 0.2
v -0.7 0.3 0.2
v -0.7 0.5 0.2
v -0.7 0.6 0.2
v -0.4 0.7 0.2
v -0.4 0.8 0.2
v -0.4 1.2 0.2
v -0.4 1.3 0.2
v -0.3 0.7 0.2
v -0.3 0.8 0.2
v -0.3 1.2 0.2
v -0.3 1.3 0.2
v -0.1 0 0.2
v -0.1 0.2 0.2
v -0.1 0.3 0.2
v 0.1 0 0.2
v 0.1 0.2 0.2
v 0.1 0.3 0.2
v 0.1 0.5 0.2
v 0.1 0.6 0.2
v 0.2 0.6 0.2
v 0.2 0.7 0.2
v 0.2 0.8 0.2
v 0.2 1.2 0.2
v 0.2 1.3 0.2
v 0.3 0.7 0.2
v 0.3 0.8 0.2
v 0.3 1.2 0.2
v 0.3 1.3 0.2
v -0.4 0.8 0.1
v -0.4 1.2 0.1
v -0.3 0.7 0.1
v -0.3 0.8 0.1
v -0.3 1.2 0.1
v -0.3 1.3 0.1
v -0.1 1.3 0.1
v -0.1 1.5 0.1
v 0 0.8 0.1
v 0 0.9 0.1
v 0 1 0.1
v 0 1.1 0.1
v 0.1 0.8 0.1
v 0.1 0.9 0.1
v 0.1 1 0.1
v 0.1 1.1 0.1
v 0.1 1.3 0.1
v 0.1 1.5 0.1
v 0.2 0.7 0.1
v 0.2 0.8 0.1
v 0.2 1.2 0.1
v 0.2 1.3 0.1
v 0.3 0.8 0.1
v 0.3 1.2 0.1
v 0 0.8 0
v 0 0.9 0
v 0 1 0
v 0 1.1 0
v 0.1 0.8 0
v 0.1 0.9 0
v 0.1 1 0
v 0.1 1.1 0
v -0.9 0 0.9
v -0.7 0 0.9
v -0.1 0 0.9
v 0.1 0 0.9
v -0.9 0 0.7
v -0.7 0 0.7
v -0.1 0 0.7
v 0.1 0 0.7
v -0.9 0 0.4
v -0.7 0 0.4
v -0.1 0 0.4
v 0.1 0 0.4
v -0.9 0 0.2
v -0.7 0 0.2
v -0.1 0 0.2
v 0.1 0 0.2
v -0.7 0.3 0.9
v -0.1 0.3 0.9
v -0.5 0.3 0.8
v -0.1 0.3 0.8
v -0.9 0.3 0.7
v -0.7 0.3 0.7
v -0.5 0.3 0.7
v -0.1 0.3 0.7
v 0.1 0.3 0.7
v -0.9 0.3 0.4
v -0.7 0.3 0.4
v -0.1 0.3 0.4
v 0.1 0.3 0.4
v -0.7 0.3 0.2
v -0.1 0.3 0.2
v 0.1 0.4 0.7
v 0.2 0.4 0.7
v 0.1 0.4 0.4
v 0.2 0.4 0.4
v 0.1 0.5 0.9
v 0.2 0.5 0.9
v 0.1 0.5 0.8
v -1 0.5 0.7
v -0.9 0.5 0.7
v 0.1 0.5 0.7
v 0.2 0.5 0.7
v -1 0.5 0.4
v -0.9 0.5 0.4
v 0.1 0.5 0.4
v 0.2 0.5 0.4
v 0.1 0.5 0.3
v 0.2 0.5 0.3
v -1 0.6 0.8
v -0.9 0.6 0.8
v -1 0.6 0.7
v -0.9 0.6 0.7
v -1 0.6 0.4
v -0.9 0.6 0.4
v -1 0.6 0.3
v -0.9 0.6 0.3
v 0.1 0.6 0.3
v 0.2 0.6 0.3
v 0.1 0.6 0.2
v 0.2 0.6 0.2
v -0.3 0.7 1
v 0.2 0.7 1
v -0.3 0.7 0.9
v 0.2 0.7 0.9
v 0.3 0.7 0.9
v -1.3 0.7 0.6
v -1 0.7 0.6
v -1.3 0.7 0.5
v -1 0.7 0.5
v -0.3 0.7 0.2
v 0.2 0.7 0.2
v 0.3 0.7 0.2
v -0.3 0.7 0.1
v 0.2 0.7 0.1
v 0 0.8 1.1
v 0.1 0.8 1.1
v -0.4 0.8 1
v -0.3 0.8 1
v 0 0.8 1
v 0.1 0.8 1
v 0.2 0.8 1
v 0.3 0.8 1
v -0.4 0.8 0.9
v -0.3 0.8 0.9
v 0.2 0.8 0.9
v 0.3 0.8 0.9
v 0.3 0.8 0.7
v 0.4 0.8 0.7
v -1.4 0.8 0.6
v -1.3 0.8 0.6
v 0.3 0.8 0.6
v 0.4 0.8 0.6
v -1.4 0.8 0.5
v -1.3 0.8 0.5
v 0.3 0.8 0.5
v 0.4 0.8 0.5
v 0.3 0.8 0.4
v 0.4 0.8 0.4
v -0.4 0.8 0.2
v -0.3 0.8 0.2
v 0.2 0.8 0.2
v 0.3 0.8 0.2
v -0.4 0.8 0.1
v -0.3 0.8 0.1
v 0 0.8 0.1
v 0.1 0.8 0.1
v 0.2 0.8 0.1
v 0.3 0.8 0.1
v 0 0.8 0
v 0.1 0.8 0
v 0.3 0.9 0.6
v 0.4 0.9 0.6
v 0.3 0.9 0.5
v 0.4 0.9 0.5
v 0 1 1.1
v 0.1 1 1.1
v 0 1 1
v 0.1 1 1
v 0 1 0.1
v 0.1 1 0.1
v 0 1 0
v 0.1 1 0
v -1.5 1.1 0.6
v -1.4 1.1 0.6
v -1.5 1.1 0.5
v -1.4 1.1 0.5
v -0.9 0.6 0.9
v -0.8 0.6 0.9
v -0.9 0.6 0.8
v -0.8 0.6 0.8
v -0.9 0.6 0.3
v -0.8 0.6 0.3
v -0.9 0.6 0.2
v -0.8 0.6 0.2
v -0.8 0.7 0.9
v -0.4 0.7 0.9
v -1 0.7 0.8
v -0.8 0.7 0.8
v -1 0.7 0.6
v -0.9 0.7 0.6
v -1 0.7 0.5
v -0.9 0.7 0.5
v -1 0.7 0.3
v -0.8 0.7 0.3
v -0.8 0.7 0.2
v -0.4 0.7 0.2
v -1.2 0.8 0.6
v -0.9 0.8 0.6
v -1.2 0.8 0.5
v -0.9 0.8 0.5
v 0 0.9 1.1
v 0.1 0.9 1.1
v 0 0.9 1
v 0.1 0.9 1
v 0.3 0.9 0.7
v 0.4 0.9 0.7
v -1.3 0.9 0.6
v -1.2 0.9 0.6
v 0.3 0.9 0.6
v 0.4 0.9 0.6
v -1.3 0.9 0.5
v -1.2 0.9 0.5
v 0.3 0.9 0.5
v 0.4 0.9 0.5
v 0.3 0.9 0.4
v 0.4 0.9 0.4
v 0 0.9 0.1
v 0.1 0.9 0.1
v 0 0.9 0
v 0.1 0.9 0
v 0.3 1 0.6
v 0.4 1 0.6
v 0.3 1 0.5
v 0.4 1 0.5
v 0 1.1 1.1
v 0.1 1.1 1.1
v 0 1.1 1
v 0.1 1.1 1
v 0 1.1 0.1
v 0.1 1.1 0.1
v 0 1.1 0
v 0.1 1.1 0
v -0.4 1.2 1
v -0.3 1.2 1
v 0.2 1.2 1
v 0.3 1.2 1
v -0.4 1.2 0.9
v -0.3 1.2 0.9
v 0.2 1.2 0.9
v 0.3 1.2 0.9
v -1.5 1.2 0.6
v -1.4 1.2 0.6
v -1.3 1.2 0.6
v -1.5 1.2 0.5
v -1.4 1.2 0.5
v -1.3 1.2 0.5
v -0.4 1.2 0.2
v -0.3 1.2 0.2
v 0.2 1.2 0.2
v 0.3 1.2 0.2
v -0.4 1.2 0.1
v -0.3 1.2 0.1
v 0.2 1.2 0.1
v 0.3 1.2 0.1
v -0.3 1.3 1
v -0.1 1.3 1
v 0.1 1.3 1
v 0.2 1.3 1
v -0.4 1.3 0.9
v -0.3 1.3 0.9
v 0.1 1.3 0.9
v 0.2 1.3 0.9
v 0.3 1.3 0.9
v 0.1 1.3 0.8
v -0.1 1.3 0.7
v 0.1 1.3 0.7
v -0.1 1.3 0.4
v 0.1 1.3 0.4
v 0.1 1.3 0.3
v -0.4 1.3 0.2
v -0.3 1.3 0.2
v 0.1 1.3 0.2
v 0.2 1.3 0.2
v 0.3 1.3 0.2
v -0.3 1.3 0.1
v -0.1 1.3 0.1
v 0.1 1.3 0.1
v 0.2 1.3 0.1
v -0.1 1.4 0.8
v 0.1 1.4 0.8
v -0.1 1.4 0.7
v 0.1 1.4 0.7
v -0.1 1.4 0.4
v 0.1 1.4 0.4
v -0.1 1.4 0.3
v 0.1 1.4 0.3
v -0.1 1.5 1
v 0.1 1.5 1
v -0.1 1.5 0.8
v 0.1 1.5 0.8
v -0.1 1.5 0.3
v 0.1 1.5 0.3
v -0.1 1.5 0.1
v 0.1 1.5 0.1

# faces
f 3/3/1 2/3/1 1/3/1
f 4/3/1 2/3/1 3/3/1
f 7/5/1 6/5/1 5/5/1
f 8/5/1 6/5/1 7/5/1
f 11/5/1 10/5/1 9/5/1
f 12/5/1 10/5/1 11/5/1
f 16/5/1 14/5/1 13/5/1
f 17/5/1 14/5/1 16/5/1
f 19/5/1 16/5/1 15/5/1
f 19/5/1 18/5/1 17/5/1
f 19/5/1 17/5/1 16/5/1
f 20/5/1 18/5/1 19/5/1
f 21/5/1 18/5/1 20/5/1
f 22/5/1 18/5/1 21/5/1
f 27/3/1 24/3/1 23/3/1
f 28/3/1 24/3/1 27/3/1
f 29/3/1 26/3/1 25/3/1
f 30/3/1 26/3/1 29/3/1
f 31/5/1 28/5/1 27/5/1
f 32/2/1 30/2/1 29/2/1
f 33/5/1 31/5/1 27/5/1
f 33/5/1 32/5/1 31/5/1
f 34/2/1 30/2/1 32/2/1
f 34/5/1 32/5/1 33/5/1
f 35/5/1 33/5/1 27/5/1
f 36/5/1 33/5/1 35/5/1
f 37/5/1 33/5/1 36/5/1
f 38/2/1 30/2/1 34/2/1
f 39/2/1 30/2/1 38/2/1
f 40/2/1 30/2/1 39/2/1
f 45/5/1 42/5/1 41/5/1
f 46/5/1 42/5/1 45/5/1
f 47/5/1 44/5/1 43/5/1
f 48/5/1 44/5/1 47/5/1
f 52/5/1 50/5/1 49/5/1
f 53/5/1 50/5/1 52/5/1
f 55/5/1 52/5/1 51/5/1
f 55/5/1 54/5/1 53/5/1
f 55/5/1 53/5/1 52/5/1
f 56/5/1 54/5/1 55/5/1
f 57/5/1 54/5/1 56/5/1
f 58/5/1 54/5/1 57/5/1
f 59/5/1 57/5/1 56/5/1
f 60/5/1 57/5/1 59/5/1
f 65/5/1 62/5/1 61/5/1
f 66/5/1 62/5/1 65/5/1
f 67/5/1 64/5/1 63/5/1
f 68/5/1 64/5/1 67/5/1
f 73/5/1 70/5/1 69/5/1
f 74/5/1 70/5/1 73/5/1
f 75/5/1 72/5/1 71/5/1
f 76/5/1 72/5/1 75/5/1
f 81/3/1 78/3/1 77/3/1
f 82/3/1 78/3/1 81/3/1
f 83/3/1 80/3/1 79/3/1
f 84/3/1 80/3/1 83/3/1
f 85/5/1 82/5/1 81/5/1
f 86/5/1 82/5/1 85/5/1
f 87/5/1 82/5/1 86/5/1
f 88/5/1 84/5/1 83/5/1
f 89/5/1 84/5/1 88/5/1
f 94/5/1 91/5/1 90/5/1
f 95/5/1 91/5/1 94/5/1
f 96/5/1 93/5/1 92/5/1
f 97/5/1 93/5/1 96/5/1
f 98/5/1 94/5/1 90/5/1
f 99/5/1 94/5/1 98/5/1
f 100/5/1 93/5/1 97/5/1
f 101/5/1 93/5/1 100/5/1
f 106/4/1 103/4/1 102/4/1
f 107/4/1 103/4/1 106/4/1
f 108/4/1 105/4/1 104/4/1
f 109/4/1 105/4/1 108/4/1
f 114/4/1 111/4/1 110/4/1
f 115/4/1 111/4/1 114/4/1
f 116/4/1 113/4/1 112/4/1
f 117/4/1 113/4/1 116/4/1
f 118/5/2 119/5/2 120/5/2
f 120/5/2 119/5/2 121/5/2
f 122/5/2 123/5/2 124/5/2
f 124/5/2 123/5/2 125/5/2
f 126/5/2 127/5/2 128/5/2
f 128/5/2 127/5/2 129/5/2
f 130/3/2 131/3/2 134/3/2
f 134/3/2 131/3/2 135/3/2
f 132/3/2 133/3/2 136/3/2
f 136/3/2 133/3/2 137/3/2
f 134/5/2 135/5/2 138/5/2
f 138/5/2 135/5/2 139/5/2
f 136/2/2 137/2/2 140/2/2
f 140/2/2 137/2/2 141/2/2
f 142/3/2 143/3/2 146/3/2
f 146/3/2 143/3/2 147/3/2
f 144/3/2 145/3/2 148/3/2
f 148/3/2 145/3/2 149/3/2
f 146/5/2 147/5/2 150/5/2
f 150/5/2 147/5/2 151/5/2
f 148/5/2 149/5/2 152/5/2
f 152/5/2 149/5/2 153/5/2
f 150/2/2 151/2/2 154/2/2
f 151/5/2 152/5/2 154/5/2
f 152/2/2 153/2/2 155/2/2
f 154/5/2 152/5/2 155/5/2
f 146/5/2 150/5/2 156/5/2
f 150/2/2 154/2/2 157/2/2
f 156/5/2 150/5/2 157/5/2
f 157/2/2 154/2/2 158/2/2
f 155/2/2 153/2/2 159/2/2
f 159/2/2 153/2/2 160/2/2
f 160/2/2 153/2/2 161/2/2
f 160/5/2 161/5/2 162/5/2
f 162/5/2 161/5/2 163/5/2
f 164/4/2 165/4/2 168/4/2
f 168/4/2 165/4/2 169/4/2
f 166/4/2 167/4/2 170/4/2
f 170/4/2 167/4/2 171/4/2
f 172/4/2 173/4/2 176/4/2
f 176/4/2 173/4/2 177/4/2
f 174/4/2 175/4/2 178/4/2
f 178/4/2 175/4/2 179/4/2
f 180/5/2 181/5/2 188/5/2
f 181/1/2 182/1/2 188/1/2
f 182/5/2 183/5/2 189/5/2
f 188/1/2 182/1/2 189/1/2
f 189/5/2 183/5/2 190/5/2
f 184/5/2 185/5/2 191/5/2
f 185/1/2 186/1/2 192/1/2
f 191/5/2 185/5/2 192/5/2
f 186/5/2 187/5/2 193/5/2
f 192/1/2 186/1/2 193/1/2
f 180/5/2 188/5/2 194/5/2
f 188/5/2 189/5/2 194/5/2
f 194/5/2 189/5/2 195/5/2
f 192/5/2 193/5/2 196/5/2
f 193/5/2 187/5/2 197/5/2
f 196/5/2 193/5/2 197/5/2
f 198/5/2 199/5/2 201/5/2
f 201/5/2 199/5/2 202/5/2
f 200/5/2 201/5/2 204/5/2
f 202/5/2 203/5/2 204/5/2
f 201/5/2 202/5/2 204/5/2
f 200/5/2 204/5/2 207/5/2
f 204/5/2 205/5/2 207/5/2
f 207/5/2 205/5/2 208/5/2
f 206/5/2 207/5/2 210/5/2
f 210/5/2 207/5/2 211/5/2
f 208/5/2 209/5/2 212/5/2
f 212/5/2 209/5/2 213/5/2
f 214/5/2 215/5/2 218/5/2
f 218/5/2 215/5/2 219/5/2
f 216/5/2 217/5/2 220/5/2
f 220/5/2 217/5/2 221/5/2
f 222/5/2 223/5/2 225/5/2
f 225/5/2 223/5/2 226/5/2
f 226/5/2 223/5/2 227/5/2
f 227/5/2 223/5/2 228/5/2
f 228/5/2 223/5/2 229/5/2
f 229/5/2 223/5/2 230/5/2
f 224/5/2 225/5/2 232/5/2
f 225/5/2 226/5/2 232/5/2
f 227/5/2 228/5/2 233/5/2
f 233/5/2 228/5/2 234/5/2
f 230/5/2 231/5/2 235/5/2
f 229/5/2 230/5/2 235/5/2
f 232/5/2 233/5/2 236/5/2
f 224/5/2 232/5/2 236/5/2
f 236/5/2 233/5/2 237/5/2
f 237/5/2 233/5/2 238/5/2
f 234/5/2 235/5/2 239/5/2
f 235/5/2 231/5/2 240/5/2
f 239/5/2 235/5/2 240/5/2
f 240/5/2 231/5/2 241/5/2
f 224/5/2 236/5/2 242/5/2
f 236/3/2 237/3/2 242/3/2
f 237/5/2 238/5/2 243/5/2
f 242/3/2 237/3/2 243/3/2
f 238/5/2 239/5/2 243/5/2
f 239/5/2 240/5/2 243/5/2
f 240/3/2 241/3/2 244/3/2
f 243/5/2 240/5/2 244/5/2
f 241/5/2 231/5/2 245/5/2
f 244/3/2 241/3/2 245/3/2
f 224/5/2 242/5/2 246/5/2
f 243/5/2 244/5/2 246/5/2
f 244/5/2 245/5/2 246/5/2
f 242/5/2 243/5/2 246/5/2
f 246/5/2 245/5/2 247/5/2
f 245/5/2 231/5/2 248/5/2
f 247/5/2 245/5/2 248/5/2
f 248/5/2 231/5/2 249/5/2
f 247/5/2 248/5/2 250/5/2
f 250/5/2 248/5/2 251/5/2
f 252/4/2 253/4/2 256/4/2
f 256/4/2 253/4/2 257/4/2
f 254/4/2 255/4/2 258/4/2
f 258/4/2 255/4/2 259/4/2
f 257/4/2 258/4/2 260/4/2
f 260/4/2 258/4/2 261/4/2
f 266/4/3 263/4/3 262/4/3
f 267/4/3 263/4/3 266/4/3
f 268/4/3 265/4/3 264/4/3
f 269/4/3 265/4/3 268/4/3
f 273/5/3 271/5/3 270/5/3
f 274/5/3 271/5/3 273/5/3
f 276/5/3 273/5/3 272/5/3
f 276/5/3 275/5/3 274/5/3
f 276/5/3 274/5/3 273/5/3
f 278/5/3 276/5/3 272/5/3
f 278/5/3 277/5/3 276/5/3
f 279/5/3 277/5/3 278/5/3
f 280/5/3 277/5/3 279/5/3
f 281/5/3 277/5/3 280/5/3
f 282/5/3 278/5/3 272/5/3
f 283/5/3 280/5/3 279/5/3
f 284/5/3 280/5/3 283/5/3
f 285/5/3 277/5/3 281/5/3
f 286/5/3 277/5/3 285/5/3
f 287/5/3 277/5/3 286/5/3
f 288/5/3 284/5/3 283/5/3
f 288/5/3 282/5/3 272/5/3
f 288/5/3 286/5/3 285/5/3
f 288/5/3 285/5/3 284/5/3
f 288/5/3 283/5/3 282/5/3
f 289/5/3 286/5/3 288/5/3
f 290/5/3 286/5/3 289/5/3
f 291/5/3 286/5/3 290/5/3
f 292/5/3 290/5/3 289/5/3
f 293/5/3 290/5/3 292/5/3
f 297/5/3 296/5/3 295/5/3
f 299/3/3 295/3/3 294/3/3
f 300/5/3 298/5/3 297/5/3
f 300/3/3 295/3/3 299/3/3
f 300/5/3 297/5/3 295/5/3
f 301/5/3 298/5/3 300/5/3
f 302/5/3 298/5/3 301/5/3
f 306/5/3 302/5/3 301/5/3
f 306/5/3 303/5/3 302/5/3
f 307/5/3 303/5/3 306/5/3
f 308/5/3 305/5/3 304/5/3
f 309/5/3 305/5/3 308/5/3
f 312/5/3 306/5/3 301/5/3
f 313/3/3 311/3/3 310/3/3
f 314/5/3 312/5/3 311/5/3
f 314/3/3 311/3/3 313/3/3
f 315/5/3 306/5/3 312/5/3
f 315/5/3 312/5/3 314/5/3
f 316/5/3 306/5/3 315/5/3
f 317/5/3 306/5/3 316/5/3
f 321/5/3 318/5/3 317/5/3
f 322/5/3 318/5/3 321/5/3
f 323/5/3 320/5/3 319/5/3
f 324/5/3 320/5/3 323/5/3
f 327/5/3 326/5/3 325/5/3
f 328/5/3 326/5/3 327/5/3
f 329/5/3 326/5/3 328/5/3
f 332/5/3 331/5/3 330/5/3
f 333/5/3 331/5/3 332/5/3
f 336/5/3 335/5/3 334/5/3
f 337/5/3 335/5/3 336/5/3
f 340/4/3 339/4/3 338/4/3
f 341/4/3 339/4/3 340/4/3
f 345/3/3 343/3/3 342/3/3
f 346/3/3 343/3/3 345/3/3
f 348/5/3 345/5/3 344/5/3
f 348/5/3 346/5/3 345/5/3
f 349/5/3 346/5/3 348/5/3
f 350/5/3 346/5/3 349/5/3
f 351/5/3 348/5/3 347/5/3
f 351/5/3 349/5/3 348/5/3
f 352/5/3 349/5/3 351/5/3
f 353/5/3 351/5/3 347/5/3
f 354/5/3 351/5/3 353/5/3
f 355/5/3 351/5/3 354/5/3
f 358/4/3 357/4/3 356/4/3
f 359/4/3 357/4/3 358/4/3
f 362/4/3 361/4/3 360/4/3
f 363/4/3 361/4/3 362/4/3
f 367/3/3 365/3/3 364/3/3
f 368/2/3 366/2/3 365/2/3
f 368/3/3 365/3/3 367/3/3
f 369/2/3 366/2/3 368/2/3
f 375/3/3 371/3/3 370/3/3
f 376/5/3 372/5/3 371/5/3
f 376/3/3 371/3/3 375/3/3
f 377/5/3 372/5/3 376/5/3
f 378/5/3 374/5/3 373/5/3
f 379/5/3 374/5/3 378/5/3
f 382/5/3 381/5/3 380/5/3
f 383/5/3 381/5/3 382/5/3
f 384/5/4 385/5/4 386/5/4
f 386/5/4 385/5/4 387/5/4
f 388/3/4 389/3/4 391/3/4
f 389/5/4 390/5/4 392/5/4
f 391/3/4 389/3/4 392/3/4
f 392/5/4 390/5/4 393/5/4
f 394/3/4 395/3/4 399/3/4
f 395/5/4 396/5/4 400/5/4
f 399/3/4 395/3/4 400/3/4
f 400/5/4 396/5/4 401/5/4
f 397/5/4 398/5/4 402/5/4
f 402/5/4 398/5/4 403/5/4
f 404/4/4 405/4/4 406/4/4
f 406/4/4 405/4/4 407/4/4
f 408/3/4 409/3/4 411/3/4
f 411/3/4 409/3/4 412/3/4
f 410/5/4 411/5/4 414/5/4
f 411/5/4 412/5/4 414/5/4
f 414/5/4 412/5/4 415/5/4
f 415/5/4 412/5/4 416/5/4
f 413/5/4 414/5/4 417/5/4
f 414/5/4 415/5/4 417/5/4
f 417/5/4 415/5/4 418/5/4
f 413/5/4 417/5/4 419/5/4
f 419/5/4 417/5/4 420/5/4
f 420/5/4 417/5/4 421/5/4
f 422/4/4 423/4/4 424/4/4
f 424/4/4 423/4/4 425/4/4
f 426/5/4 427/5/4 428/5/4
f 428/5/4 427/5/4 429/5/4
f 430/5/4 431/5/4 432/5/4
f 432/5/4 431/5/4 433/5/4
f 434/4/4 435/4/4 436/4/4
f 436/4/4 435/4/4 437/4/4
f 438/5/4 439/5/4 440/5/4
f 440/5/4 439/5/4 441/5/4
f 441/5/4 439/5/4 442/5/4
f 443/5/4 444/5/4 445/5/4
f 445/5/4 444/5/4 446/5/4
f 448/2/4 449/2/4 450/2/4
f 447/3/4 448/3/4 452/3/4
f 448/2/4 450/2/4 453/2/4
f 452/3/4 448/3/4 453/3/4
f 453/2/4 450/2/4 454/2/4
f 454/2/4 450/2/4 455/2/4
f 450/5/4 451/5/4 456/5/4
f 455/2/4 450/2/4 456/2/4
f 456/5/4 451/5/4 457/5/4
f 455/5/4 456/5/4 457/5/4
f 455/5/4 457/5/4 461/5/4
f 457/5/4 458/5/4 461/5/4
f 461/5/4 458/5/4 462/5/4
f 459/5/4 460/5/4 463/5/4
f 463/5/4 460/5/4 464/5/4
f 454/2/4 455/2/4 467/2/4
f 465/3/4 466/3/4 468/3/4
f 466/5/4 467/5/4 469/5/4
f 468/3/4 466/3/4 469/3/4
f 467/2/4 455/2/4 470/2/4
f 469/5/4 467/5/4 470/5/4
f 455/5/4 461/5/4 471/5/4
f 470/2/4 455/2/4 471/2/4
f 471/5/4 461/5/4 472/5/4
f 472/5/4 461/5/4 473/5/4
f 473/5/4 461/5/4 474/5/4
f 474/5/4 475/5/4 478/5/4
f 478/5/4 475/5/4 479/5/4
f 476/5/4 477/5/4 480/5/4
f 480/5/4 477/5/4 481/5/4
f 482/5/4 483/5/4 485/5/4
f 485/5/4 483/5/4 486/5/4
f 484/5/4 485/5/4 488/5/4
f 486/5/4 487/5/4 488/5/4
f 485/5/4 486/5/4 488/5/4
f 484/5/4 488/5/4 490/5/4
f 488/5/4 489/5/4 490/5/4
f 490/5/4 489/5/4 491/5/4
f 491/5/4 489/5/4 492/5/4
f 492/5/4 489/5/4 493/5/4
f 484/5/4 490/5/4 494/5/4
f 491/5/4 492/5/4 495/5/4
f 495/5/4 492/5/4 496/5/4
f 493/5/4 489/5/4 497/5/4
f 497/5/4 489/5/4 498/5/4
f 498/5/4 489/5/4 499/5/4
f 495/5/4 496/5/4 500/5/4
f 484/5/4 494/5/4 500/5/4
f 497/5/4 498/5/4 500/5/4
f 496/5/4 497/5/4 500/5/4
f 494/5/4 495/5/4 500/5/4
f 500/5/4 498/5/4 501/5/4
f 501/5/4 498/5/4 502/5/4
f 502/5/4 498/5/4 503/5/4
f 501/5/4 502/5/4 504/5/4
f 504/5/4 502/5/4 505/5/4
f 506/4/4 507/4/4 510/4/4
f 510/4/4 507/4/4 511/4/4
f 508/4/4 509/4/4 512/4/4
f 512/4/4 509/4/4 513/4/4
f 518/3/5 515/3/5 514/3/5
f 519/3/5 515/3/5 518/3/5
f 520/3/5 517/3/5 516/3/5
f 521/3/5 517/3/5 520/3/5
f 526/3/5 523/3/5 522/3/5
f 527/3/5 523/3/5 526/3/5
f 528/3/5 525/3/5 524/3/5
f 529/3/5 525/3/5 528/3/5
f 532/5/5 531/5/5 530/5/5
f 533/5/5 531/5/5 532/5/5
f 535/5/5 532/5/5 530/5/5
f 536/2/5 533/2/5 532/2/5
f 536/5/5 532/5/5 535/5/5
f 537/2/5 533/2/5 536/2/5
f 539/5/5 537/5/5 536/5/5
f 539/5/5 538/5/5 537/5/5
f 539/5/5 536/5/5 535/5/5
f 539/5/5 535/5/5 534/5/5
f 540/5/5 538/5/5 539/5/5
f 541/5/5 538/5/5 540/5/5
f 542/5/5 538/5/5 541/5/5
f 543/2/5 541/2/5 540/2/5
f 544/2/5 541/2/5 543/2/5
f 547/5/5 546/5/5 545/5/5
f 548/5/5 546/5/5 547/5/5
f 551/5/5 550/5/5 549/5/5
f 554/5/5 550/5/5 551/5/5
f 555/5/5 550/5/5 554/5/5
f 556/5/5 553/5/5 552/5/5
f 557/5/5 553/5/5 556/5/5
f 560/5/5 559/5/5 558/5/5
f 561/5/5 559/5/5 560/5/5
f 564/5/5 563/5/5 562/5/5
f 565/5/5 563/5/5 564/5/5
f 568/5/5 567/5/5 566/5/5
f 569/5/5 567/5/5 568/5/5
f 572/5/5 571/5/5 570/5/5
f 573/5/5 571/5/5 572/5/5
f 576/5/5 575/5/5 574/5/5
f 577/5/5 575/5/5 576/5/5
f 581/5/5 580/5/5 579/5/5
f 582/5/5 580/5/5 581/5/5
f 584/5/5 578/5/5 577/5/5
f 585/5/5 578/5/5 584/5/5
f 586/5/5 584/5/5 583/5/5
f 587/5/5 584/5/5 586/5/5
f 592/4/5 589/4/5 588/4/5
f 593/4/5 589/4/5 592/4/5
f 596/5/5 591/5/5 590/5/5
f 597/5/5 591/5/5 596/5/5
f 598/5/5 595/5/5 594/5/5
f 599/5/5 595/5/5 598/5/5
f 604/4/5 601/4/5 600/4/5
f 605/4/5 601/4/5 604/4/5
f 606/5/5 603/5/5 602/5/5
f 607/5/5 603/5/5 606/5/5
f 610/4/5 609/4/5 608/4/5
f 611/4/5 609/4/5 610/4/5
f 616/5/5 613/5/5 612/5/5
f 617/5/5 613/5/5 616/5/5
f 620/5/5 615/5/5 614/5/5
f 621/5/5 615/5/5 620/5/5
f 622/4/5 619/4/5 618/4/5
f 623/4/5 619/4/5 622/4/5
f 626/4/5 625/4/5 624/4/5
f 627/4/5 625/4/5 626/4/5
f 630/4/5 629/4/5 628/4/5
f 631/4/5 629/4/5 630/4/5
f 634/4/5 633/4/5 632/4/5
f 635/4/5 633/4/5 634/4/5
f 638/3/5 637/3/5 636/3/5
f 639/3/5 637/3/5 638/3/5
f 640/5/6 641/5/6 642/5/6
f 642/5/6 641/5/6 643/5/6
f 644/2/6 645/2/6 646/2/6
f 646/2/6 645/2/6 647/2/6
f 648/5/6 649/5/6 651/5/6
f 650/5/6 651/5/6 652/5/6
f 652/5/6 651/5/6 653/5/6
f 653/5/6 651/5/6 655/5/6
f 654/5/6 655/5/6 656/5/6
f 651/5/6 649/5/6 657/5/6
f 656/5/6 655/5/6 657/5/6
f 655/5/6 651/5/6 657/5/6
f 657/5/6 649/5/6 658/5/6
f 658/5/6 649/5/6 659/5/6
f 660/5/6 661/5/6 662/5/6
f 662/5/6 661/5/6 663/5/6
f 664/4/6 665/4/6 666/4/6
f 666/4/6 665/4/6 667/4/6
f 668/4/6 669/4/6 672/4/6
f 672/4/6 669/4/6 673/4/6
f 670/5/6 671/5/6 674/5/6
f 674/5/6 671/5/6 675/5/6
f 676/4/6 677/4/6 678/4/6
f 678/4/6 677/4/6 679/4/6
f 680/4/6 681/4/6 682/4/6
f 682/4/6 681/4/6 683/4/6
f 684/4/6 685/4/6 686/4/6
f 686/4/6 685/4/6 687/4/6
f 688/4/6 689/4/6 690/4/6
f 690/4/6 689/4/6 691/4/6
f 692/4/6 693/4/6 694/4/6
f 694/4/6 693/4/6 695/4/6
f 696/5/6 697/5/6 700/5/6
f 700/5/6 697/5/6 701/5/6
f 698/5/6 699/5/6 702/5/6
f 702/5/6 699/5/6 703/5/6
f 704/3/6 705/3/6 707/3/6
f 705/5/6 706/5/6 708/5/6
f 707/3/6 705/3/6 708/3/6
f 708/5/6 706/5/6 709/5/6
f 710/5/6 711/5/6 714/5/6
f 714/5/6 711/5/6 715/5/6
f 712/5/6 713/5/6 716/5/6
f 716/5/6 713/5/6 717/5/6
f 718/5/6 719/5/6 723/5/6
f 720/5/6 721/5/6 724/5/6
f 724/5/6 721/5/6 725/5/6
f 724/5/6 725/5/6 727/5/6
f 725/5/6 726/5/6 727/5/6
f 722/5/6 723/5/6 728/5/6
f 723/5/6 719/5/6 728/5/6
f 727/5/6 726/5/6 729/5/6
f 722/5/6 728/5/6 730/5/6
f 728/5/6 729/5/6 730/5/6
f 729/5/6 726/5/6 731/5/6
f 730/5/6 729/5/6 731/5/6
f 731/5/6 726/5/6 732/5/6
f 722/5/6 730/5/6 733/5/6
f 733/5/6 730/5/6 734/5/6
f 732/5/6 726/5/6 735/5/6
f 735/5/6 726/5/6 736/5/6
f 736/5/6 726/5/6 737/5/6
f 734/5/6 730/5/6 738/5/6
f 738/5/6 730/5/6 739/5/6
f 735/5/6 736/5/6 740/5/6
f 740/5/6 736/5/6 741/5/6
f 742/5/6 743/5/6 744/5/6
f 744/5/6 743/5/6 745/5/6
f 746/5/6 747/5/6 748/5/6
f 748/5/6 747/5/6 749/5/6
f 750/5/6 751/5/6 752/5/6
f 752/5/6 751/5/6 753/5/6
f 754/5/6 755/5/6 756/5/6
f 756/5/6 755/5/6 757/5/6
