# MagicaVoxel @ Ephtracy

# group
o 

# material
mtllib car01.vox.mtl
usemtl palette

# normals
vn -1 0 0
vn 1 0 0
vn 0 0 1
vn 0 0 -1
vn 0 -1 0
vn 0 1 0

# texcoords
vt 0.00195312 0.5
vt 0.0292969 0.5
vt 0.138672 0.5
vt 0.958984 0.5
vt 0.982422 0.5
vt 0.994141 0.5

# verts
v -0.8 0.1 0.4
v -0.8 0.1 -0.2
v -0.8 0.2 0.4
v -0.8 0.2 0.2
v -0.8 0.2 0
v -0.8 0.2 -0.2
v -0.8 0.3 0.3
v -0.8 0.3 0.2
v -0.8 0.3 0
v -0.8 0.3 -0.1
v -0.8 0.4 0.3
v -0.8 0.4 0.2
v -0.8 0.4 0
v -0.8 0.4 -0.1
v -0.8 0.5 0.4
v -0.8 0.5 0.2
v -0.8 0.5 0
v -0.8 0.5 -0.2
v -0.7 0 0.4
v -0.7 0 0.3
v -0.7 0 -0.1
v -0.7 0 -0.2
v -0.7 0.1 0.4
v -0.7 0.1 0.3
v -0.7 0.1 -0.1
v -0.7 0.1 -0.2
v -0.6 0.5 0.3
v -0.6 0.5 0.2
v -0.6 0.5 0
v -0.6 0.5 -0.1
v -0.6 0.6 0.2
v -0.6 0.6 0
v -0.6 0.7 0.3
v -0.6 0.7 0.2
v -0.6 0.7 0
v -0.6 0.7 -0.1
v 5.96046e-08 0.5 0.2
v 5.96046e-08 0.5 0
v 5.96046e-08 0.6 0.2
v 5.96046e-08 0.6 0
v 0.1 0 0.4
v 0.1 0 0.3
v 0.1 0 -0.1
v 0.1 0 -0.2
v 0.1 0.1 0.4
v 0.1 0.1 0.3
v 0.1 0.1 -0.1
v 0.1 0.1 -0.2
v 0.5 0.1 0.3
v 0.5 0.1 -0.1
v 0.5 0.2 0.3
v 0.5 0.2 0.2
v 0.5 0.2 0
v 0.5 0.2 -0.1
v 0.5 0.3 0.3
v 0.5 0.3 0.2
v 0.5 0.3 0
v 0.5 0.3 -0.1
v -0.7 0.1 0.3
v -0.7 0.1 -0.1
v -0.7 0.2 0.3
v -0.7 0.2 0.2
v -0.7 0.2 0
v -0.7 0.2 -0.1
v -0.7 0.3 0.3
v -0.7 0.3 0.2
v -0.7 0.3 0
v -0.7 0.3 -0.1
v -0.5 0.5 0.2
v -0.5 0.5 0
v -0.5 0.6 0.2
v -0.5 0.6 0
v -0.4 0 0.4
v -0.4 0 0.3
v -0.4 0 -0.1
v -0.4 0 -0.2
v -0.4 0.1 0.4
v -0.4 0.1 0.3
v -0.4 0.1 -0.1
v -0.4 0.1 -0.2
v 0.1 0.5 0.3
v 0.1 0.5 0.2
v 0.1 0.5 0
v 0.1 0.5 -0.1
v 0.1 0.6 0.2
v 0.1 0.6 0
v 0.1 0.7 0.3
v 0.1 0.7 0.2
v 0.1 0.7 0
v 0.1 0.7 -0.1
v 0.4 0 0.4
v 0.4 0 0.3
v 0.4 0 -0.1
v 0.4 0 -0.2
v 0.4 0.1 0.4
v 0.4 0.1 0.3
v 0.4 0.1 -0.1
v 0.4 0.1 -0.2
v 0.6 0.1 0.4
v 0.6 0.1 -0.2
v 0.6 0.2 0.4
v 0.6 0.2 0.2
v 0.6 0.2 0
v 0.6 0.2 -0.2
v 0.6 0.3 0.3
v 0.6 0.3 0.2
v 0.6 0.3 0
v 0.6 0.3 -0.1
v 0.6 0.4 0.3
v 0.6 0.4 0.2
v 0.6 0.4 0
v 0.6 0.4 -0.1
v 0.6 0.5 0.4
v 0.6 0.5 0.2
v 0.6 0.5 0
v 0.6 0.5 -0.2
v -0.8 0.1 0.4
v -0.8 0.2 0.4
v -0.8 0.5 0.4
v -0.7 0 0.4
v -0.7 0.1 0.4
v -0.7 0.2 0.4
v -0.7 0.3 0.4
v -0.6 0.1 0.4
v -0.6 0.2 0.4
v -0.5 0.1 0.4
v -0.5 0.2 0.4
v -0.4 0 0.4
v -0.4 0.1 0.4
v -0.4 0.2 0.4
v -0.4 0.3 0.4
v 0.1 0 0.4
v 0.1 0.1 0.4
v 0.1 0.2 0.4
v 0.1 0.3 0.4
v 0.2 0.1 0.4
v 0.2 0.2 0.4
v 0.3 0.1 0.4
v 0.3 0.2 0.4
v 0.4 0 0.4
v 0.4 0.1 0.4
v 0.4 0.2 0.4
v 0.4 0.3 0.4
v 0.6 0.1 0.4
v 0.6 0.2 0.4
v 0.6 0.5 0.4
v -0.6 0.5 0.3
v -0.6 0.7 0.3
v -0.5 0.5 0.3
v -0.5 0.6 0.3
v -0.5 0.7 0.3
v -0.4 0.5 0.3
v -0.4 0.6 0.3
v -0.4 0.7 0.3
v -0.3 0.5 0.3
v -0.3 0.6 0.3
v -0.3 0.7 0.3
v 5.96046e-08 0.5 0.3
v 5.96046e-08 0.6 0.3
v 5.96046e-08 0.7 0.3
v 0.1 0.5 0.3
v 0.1 0.7 0.3
v -0.5 0.5 0
v -0.5 0.6 0
v -0.4 0.5 0
v -0.4 0.6 0
v -0.3 0.5 0
v -0.3 0.6 0
v 5.96046e-08 0.5 0
v 5.96046e-08 0.6 0
v -0.7 0 -0.1
v -0.7 0.1 -0.1
v -0.7 0.2 -0.1
v -0.7 0.3 -0.1
v -0.6 0.1 -0.1
v -0.6 0.2 -0.1
v -0.5 0.1 -0.1
v -0.5 0.2 -0.1
v -0.4 0 -0.1
v -0.4 0.1 -0.1
v -0.4 0.2 -0.1
v -0.4 0.3 -0.1
v 0.1 0 -0.1
v 0.1 0.1 -0.1
v 0.1 0.2 -0.1
v 0.1 0.3 -0.1
v 0.2 0.1 -0.1
v 0.2 0.2 -0.1
v 0.3 0.1 -0.1
v 0.3 0.2 -0.1
v 0.4 0 -0.1
v 0.4 0.1 -0.1
v 0.4 0.2 -0.1
v 0.4 0.3 -0.1
v 0.5 0.1 -0.1
v 0.5 0.2 -0.1
v 0.5 0.3 -0.1
v -0.7 0 0.3
v -0.7 0.1 0.3
v -0.7 0.2 0.3
v -0.7 0.3 0.3
v -0.6 0.1 0.3
v -0.6 0.2 0.3
v -0.5 0.1 0.3
v -0.5 0.2 0.3
v -0.4 0 0.3
v -0.4 0.1 0.3
v -0.4 0.2 0.3
v -0.4 0.3 0.3
v 0.1 0 0.3
v 0.1 0.1 0.3
v 0.1 0.2 0.3
v 0.1 0.3 0.3
v 0.2 0.1 0.3
v 0.2 0.2 0.3
v 0.3 0.1 0.3
v 0.3 0.2 0.3
v 0.4 0 0.3
v 0.4 0.1 0.3
v 0.4 0.2 0.3
v 0.4 0.3 0.3
v 0.5 0.1 0.3
v 0.5 0.2 0.3
v 0.5 0.3 0.3
v -0.5 0.5 0.2
v -0.5 0.6 0.2
v -0.4 0.5 0.2
v -0.4 0.6 0.2
v -0.3 0.5 0.2
v -0.3 0.6 0.2
v 5.96046e-08 0.5 0.2
v 5.96046e-08 0.6 0.2
v -0.6 0.5 -0.1
v -0.6 0.7 -0.1
v -0.5 0.5 -0.1
v -0.5 0.6 -0.1
v -0.5 0.7 -0.1
v -0.4 0.5 -0.1
v -0.4 0.6 -0.1
v -0.4 0.7 -0.1
v -0.3 0.5 -0.1
v -0.3 0.6 -0.1
v -0.3 0.7 -0.1
v 5.96046e-08 0.5 -0.1
v 5.96046e-08 0.6 -0.1
v 5.96046e-08 0.7 -0.1
v 0.1 0.5 -0.1
v 0.1 0.7 -0.1
v -0.8 0.1 -0.2
v -0.8 0.2 -0.2
v -0.8 0.5 -0.2
v -0.7 0 -0.2
v -0.7 0.1 -0.2
v -0.7 0.2 -0.2
v -0.7 0.3 -0.2
v -0.6 0.1 -0.2
v -0.6 0.2 -0.2
v -0.5 0.1 -0.2
v -0.5 0.2 -0.2
v -0.4 0 -0.2
v -0.4 0.1 -0.2
v -0.4 0.2 -0.2
v -0.4 0.3 -0.2
v 0.1 0 -0.2
v 0.1 0.1 -0.2
v 0.1 0.2 -0.2
v 0.1 0.3 -0.2
v 0.2 0.1 -0.2
v 0.2 0.2 -0.2
v 0.3 0.1 -0.2
v 0.3 0.2 -0.2
v 0.4 0 -0.2
v 0.4 0.1 -0.2
v 0.4 0.2 -0.2
v 0.4 0.3 -0.2
v 0.6 0.1 -0.2
v 0.6 0.2 -0.2
v 0.6 0.5 -0.2
v -0.7 0 0.4
v -0.4 0 0.4
v 0.1 0 0.4
v 0.4 0 0.4
v -0.7 0 0.3
v -0.4 0 0.3
v 0.1 0 0.3
v 0.4 0 0.3
v -0.7 0 -0.1
v -0.4 0 -0.1
v 0.1 0 -0.1
v 0.4 0 -0.1
v -0.7 0 -0.2
v -0.4 0 -0.2
v 0.1 0 -0.2
v 0.4 0 -0.2
v -0.8 0.1 0.4
v -0.7 0.1 0.4
v -0.4 0.1 0.4
v 0.1 0.1 0.4
v 0.4 0.1 0.4
v 0.6 0.1 0.4
v -0.7 0.1 0.3
v -0.4 0.1 0.3
v 0.1 0.1 0.3
v 0.4 0.1 0.3
v 0.5 0.1 0.3
v -0.7 0.1 -0.1
v -0.4 0.1 -0.1
v 0.1 0.1 -0.1
v 0.4 0.1 -0.1
v 0.5 0.1 -0.1
v -0.8 0.1 -0.2
v -0.7 0.1 -0.2
v -0.4 0.1 -0.2
v 0.1 0.1 -0.2
v 0.4 0.1 -0.2
v 0.6 0.1 -0.2
v -0.7 0.3 0.3
v -0.4 0.3 0.3
v 0.1 0.3 0.3
v 0.4 0.3 0.3
v 0.5 0.3 0.3
v -0.7 0.3 0.2
v 0.5 0.3 0.2
v -0.7 0.3 0
v 0.5 0.3 0
v -0.7 0.3 -0.1
v -0.4 0.3 -0.1
v 0.1 0.3 -0.1
v 0.4 0.3 -0.1
v 0.5 0.3 -0.1
v -0.5 0.6 0.2
v -0.4 0.6 0.2
v -0.3 0.6 0.2
v 5.96046e-08 0.6 0.2
v -0.5 0.6 0
v -0.4 0.6 0
v -0.3 0.6 0
v 5.96046e-08 0.6 0
v -0.8 0.5 0.4
v 0.6 0.5 0.4
v -0.6 0.5 0.3
v -0.5 0.5 0.3
v -0.4 0.5 0.3
v -0.3 0.5 0.3
v 5.96046e-08 0.5 0.3
v 0.1 0.5 0.3
v -0.8 0.5 0.2
v -0.6 0.5 0.2
v -0.5 0.5 0.2
v -0.4 0.5 0.2
v -0.3 0.5 0.2
v 5.96046e-08 0.5 0.2
v 0.1 0.5 0.2
v 0.6 0.5 0.2
v -0.8 0.5 0
v -0.6 0.5 0
v -0.5 0.5 0
v -0.4 0.5 0
v -0.3 0.5 0
v 5.96046e-08 0.5 0
v 0.1 0.5 0
v 0.6 0.5 0
v -0.6 0.5 -0.1
v -0.5 0.5 -0.1
v -0.4 0.5 -0.1
v -0.3 0.5 -0.1
v 5.96046e-08 0.5 -0.1
v 0.1 0.5 -0.1
v -0.8 0.5 -0.2
v 0.6 0.5 -0.2
v -0.6 0.7 0.3
v -0.5 0.7 0.3
v -0.4 0.7 0.3
v -0.3 0.7 0.3
v 5.96046e-08 0.7 0.3
v 0.1 0.7 0.3
v -0.6 0.7 0.2
v -0.5 0.7 0.2
v -0.4 0.7 0.2
v -0.3 0.7 0.2
v 5.96046e-08 0.7 0.2
v 0.1 0.7 0.2
v -0.6 0.7 0
v -0.5 0.7 0
v -0.4 0.7 0
v -0.3 0.7 0
v 5.96046e-08 0.7 0
v 0.1 0.7 0
v -0.6 0.7 -0.1
v -0.5 0.7 -0.1
v -0.4 0.7 -0.1
v -0.3 0.7 -0.1
v 5.96046e-08 0.7 -0.1
v 0.1 0.7 -0.1

# faces
f 3/5/1 2/5/1 1/5/1
f 4/5/1 2/5/1 3/5/1
f 5/5/1 2/5/1 4/5/1
f 6/5/1 2/5/1 5/5/1
f 7/3/1 4/3/1 3/3/1
f 8/2/1 5/2/1 4/2/1
f 8/3/1 4/3/1 7/3/1
f 9/3/1 6/3/1 5/3/1
f 9/2/1 5/2/1 8/2/1
f 10/3/1 6/3/1 9/3/1
f 11/3/1 7/3/1 3/3/1
f 11/1/1 8/1/1 7/1/1
f 12/2/1 9/2/1 8/2/1
f 12/1/1 8/1/1 11/1/1
f 13/1/1 10/1/1 9/1/1
f 13/2/1 9/2/1 12/2/1
f 14/3/1 6/3/1 10/3/1
f 14/1/1 10/1/1 13/1/1
f 15/3/1 12/3/1 11/3/1
f 15/3/1 11/3/1 3/3/1
f 16/2/1 13/2/1 12/2/1
f 16/3/1 12/3/1 15/3/1
f 17/3/1 14/3/1 13/3/1
f 17/2/1 13/2/1 16/2/1
f 18/3/1 6/3/1 14/3/1
f 18/3/1 14/3/1 17/3/1
f 23/6/1 20/6/1 19/6/1
f 24/6/1 20/6/1 23/6/1
f 25/6/1 22/6/1 21/6/1
f 26/6/1 22/6/1 25/6/1
f 31/1/1 28/1/1 27/1/1
f 31/6/1 29/6/1 28/6/1
f 32/1/1 30/1/1 29/1/1
f 32/6/1 29/6/1 31/6/1
f 33/1/1 31/1/1 27/1/1
f 34/4/1 32/4/1 31/4/1
f 34/1/1 31/1/1 33/1/1
f 35/1/1 30/1/1 32/1/1
f 35/4/1 32/4/1 34/4/1
f 36/1/1 30/1/1 35/1/1
f 39/6/1 38/6/1 37/6/1
f 40/6/1 38/6/1 39/6/1
f 45/6/1 42/6/1 41/6/1
f 46/6/1 42/6/1 45/6/1
f 47/6/1 44/6/1 43/6/1
f 48/6/1 44/6/1 47/6/1
f 51/5/1 50/5/1 49/5/1
f 52/5/1 50/5/1 51/5/1
f 53/5/1 50/5/1 52/5/1
f 54/5/1 50/5/1 53/5/1
f 55/3/1 52/3/1 51/3/1
f 56/2/1 53/2/1 52/2/1
f 56/3/1 52/3/1 55/3/1
f 57/3/1 54/3/1 53/3/1
f 57/2/1 53/2/1 56/2/1
f 58/3/1 54/3/1 57/3/1
f 59/5/2 60/5/2 61/5/2
f 61/5/2 60/5/2 62/5/2
f 62/5/2 60/5/2 63/5/2
f 63/5/2 60/5/2 64/5/2
f 61/3/2 62/3/2 65/3/2
f 62/2/2 63/2/2 66/2/2
f 65/3/2 62/3/2 66/3/2
f 63/3/2 64/3/2 67/3/2
f 66/2/2 63/2/2 67/2/2
f 67/3/2 64/3/2 68/3/2
f 69/6/2 70/6/2 71/6/2
f 71/6/2 70/6/2 72/6/2
f 73/6/2 74/6/2 77/6/2
f 77/6/2 74/6/2 78/6/2
f 75/6/2 76/6/2 79/6/2
f 79/6/2 76/6/2 80/6/2
f 81/1/2 82/1/2 85/1/2
f 82/6/2 83/6/2 85/6/2
f 83/1/2 84/1/2 86/1/2
f 85/6/2 83/6/2 86/6/2
f 81/1/2 85/1/2 87/1/2
f 85/4/2 86/4/2 88/4/2
f 87/1/2 85/1/2 88/1/2
f 86/1/2 84/1/2 89/1/2
f 88/4/2 86/4/2 89/4/2
f 89/1/2 84/1/2 90/1/2
f 91/6/2 92/6/2 95/6/2
f 95/6/2 92/6/2 96/6/2
f 93/6/2 94/6/2 97/6/2
f 97/6/2 94/6/2 98/6/2
f 99/5/2 100/5/2 101/5/2
f 101/5/2 100/5/2 102/5/2
f 102/5/2 100/5/2 103/5/2
f 103/5/2 100/5/2 104/5/2
f 101/3/2 102/3/2 105/3/2
f 102/2/2 103/2/2 106/2/2
f 105/3/2 102/3/2 106/3/2
f 103/3/2 104/3/2 107/3/2
f 106/2/2 103/2/2 107/2/2
f 107/3/2 104/3/2 108/3/2
f 101/3/2 105/3/2 109/3/2
f 105/1/2 106/1/2 109/1/2
f 106/2/2 107/2/2 110/2/2
f 109/1/2 106/1/2 110/1/2
f 107/1/2 108/1/2 111/1/2
f 110/2/2 107/2/2 111/2/2
f 108/3/2 104/3/2 112/3/2
f 111/1/2 108/1/2 112/1/2
f 109/3/2 110/3/2 113/3/2
f 101/3/2 109/3/2 113/3/2
f 110/2/2 111/2/2 114/2/2
f 113/3/2 110/3/2 114/3/2
f 111/3/2 112/3/2 115/3/2
f 114/2/2 111/2/2 115/2/2
f 112/3/2 104/3/2 116/3/2
f 115/3/2 112/3/2 116/3/2
f 121/5/3 118/5/3 117/5/3
f 122/3/3 119/3/3 118/3/3
f 122/5/3 118/5/3 121/5/3
f 123/3/3 119/3/3 122/3/3
f 124/6/3 121/6/3 120/6/3
f 124/6/3 122/6/3 121/6/3
f 124/6/3 123/6/3 122/6/3
f 125/6/3 123/6/3 124/6/3
f 126/6/3 124/6/3 120/6/3
f 126/4/3 125/4/3 124/4/3
f 127/6/3 123/6/3 125/6/3
f 127/4/3 125/4/3 126/4/3
f 128/6/3 126/6/3 120/6/3
f 128/6/3 127/6/3 126/6/3
f 129/6/3 127/6/3 128/6/3
f 130/6/3 123/6/3 127/6/3
f 130/6/3 127/6/3 129/6/3
f 131/3/3 119/3/3 123/3/3
f 131/6/3 123/6/3 130/6/3
f 133/5/3 130/5/3 129/5/3
f 134/3/3 131/3/3 130/3/3
f 134/5/3 130/5/3 133/5/3
f 135/3/3 119/3/3 131/3/3
f 135/3/3 131/3/3 134/3/3
f 136/6/3 133/6/3 132/6/3
f 136/6/3 134/6/3 133/6/3
f 136/6/3 135/6/3 134/6/3
f 137/6/3 135/6/3 136/6/3
f 138/6/3 136/6/3 132/6/3
f 138/4/3 137/4/3 136/4/3
f 139/6/3 135/6/3 137/6/3
f 139/4/3 137/4/3 138/4/3
f 140/6/3 138/6/3 132/6/3
f 140/6/3 139/6/3 138/6/3
f 141/6/3 139/6/3 140/6/3
f 142/6/3 135/6/3 139/6/3
f 142/6/3 139/6/3 141/6/3
f 143/3/3 119/3/3 135/3/3
f 143/6/3 135/6/3 142/6/3
f 144/5/3 142/5/3 141/5/3
f 145/3/3 143/3/3 142/3/3
f 145/5/3 142/5/3 144/5/3
f 146/3/3 119/3/3 143/3/3
f 146/3/3 143/3/3 145/3/3
f 149/1/3 148/1/3 147/1/3
f 150/1/3 148/1/3 149/1/3
f 151/1/3 148/1/3 150/1/3
f 152/6/3 150/6/3 149/6/3
f 153/4/3 151/4/3 150/4/3
f 153/6/3 150/6/3 152/6/3
f 154/4/3 151/4/3 153/4/3
f 155/1/3 153/1/3 152/1/3
f 155/1/3 154/1/3 153/1/3
f 156/1/3 154/1/3 155/1/3
f 157/1/3 154/1/3 156/1/3
f 158/6/3 156/6/3 155/6/3
f 159/4/3 157/4/3 156/4/3
f 159/6/3 156/6/3 158/6/3
f 160/4/3 157/4/3 159/4/3
f 161/1/3 159/1/3 158/1/3
f 161/1/3 160/1/3 159/1/3
f 162/1/3 160/1/3 161/1/3
f 165/6/3 164/6/3 163/6/3
f 166/6/3 164/6/3 165/6/3
f 167/1/3 166/1/3 165/1/3
f 168/1/3 166/1/3 167/1/3
f 169/6/3 168/6/3 167/6/3
f 170/6/3 168/6/3 169/6/3
f 175/6/3 172/6/3 171/6/3
f 175/6/3 174/6/3 173/6/3
f 175/6/3 173/6/3 172/6/3
f 176/6/3 174/6/3 175/6/3
f 177/6/3 175/6/3 171/6/3
f 177/4/3 176/4/3 175/4/3
f 178/6/3 174/6/3 176/6/3
f 178/4/3 176/4/3 177/4/3
f 179/6/3 177/6/3 171/6/3
f 179/6/3 178/6/3 177/6/3
f 180/6/3 178/6/3 179/6/3
f 181/6/3 174/6/3 178/6/3
f 181/6/3 178/6/3 180/6/3
f 182/6/3 174/6/3 181/6/3
f 184/5/3 181/5/3 180/5/3
f 185/3/3 182/3/3 181/3/3
f 185/5/3 181/5/3 184/5/3
f 186/3/3 182/3/3 185/3/3
f 187/6/3 184/6/3 183/6/3
f 187/6/3 185/6/3 184/6/3
f 187/6/3 186/6/3 185/6/3
f 188/6/3 186/6/3 187/6/3
f 189/6/3 187/6/3 183/6/3
f 189/4/3 188/4/3 187/4/3
f 190/6/3 186/6/3 188/6/3
f 190/4/3 188/4/3 189/4/3
f 191/6/3 189/6/3 183/6/3
f 191/6/3 190/6/3 189/6/3
f 192/6/3 190/6/3 191/6/3
f 193/6/3 186/6/3 190/6/3
f 193/6/3 190/6/3 192/6/3
f 194/6/3 186/6/3 193/6/3
f 195/5/3 193/5/3 192/5/3
f 196/3/3 194/3/3 193/3/3
f 196/5/3 193/5/3 195/5/3
f 197/3/3 194/3/3 196/3/3
f 198/6/4 199/6/4 202/6/4
f 200/6/4 201/6/4 202/6/4
f 199/6/4 200/6/4 202/6/4
f 202/6/4 201/6/4 203/6/4
f 198/6/4 202/6/4 204/6/4
f 202/4/4 203/4/4 204/4/4
f 203/6/4 201/6/4 205/6/4
f 204/4/4 203/4/4 205/4/4
f 198/6/4 204/6/4 206/6/4
f 204/6/4 205/6/4 206/6/4
f 206/6/4 205/6/4 207/6/4
f 205/6/4 201/6/4 208/6/4
f 207/6/4 205/6/4 208/6/4
f 208/6/4 201/6/4 209/6/4
f 207/5/4 208/5/4 211/5/4
f 208/3/4 209/3/4 212/3/4
f 211/5/4 208/5/4 212/5/4
f 212/3/4 209/3/4 213/3/4
f 210/6/4 211/6/4 214/6/4
f 211/6/4 212/6/4 214/6/4
f 212/6/4 213/6/4 214/6/4
f 214/6/4 213/6/4 215/6/4
f 210/6/4 214/6/4 216/6/4
f 214/4/4 215/4/4 216/4/4
f 215/6/4 213/6/4 217/6/4
f 216/4/4 215/4/4 217/4/4
f 210/6/4 216/6/4 218/6/4
f 216/6/4 217/6/4 218/6/4
f 218/6/4 217/6/4 219/6/4
f 217/6/4 213/6/4 220/6/4
f 219/6/4 217/6/4 220/6/4
f 220/6/4 213/6/4 221/6/4
f 219/5/4 220/5/4 222/5/4
f 220/3/4 221/3/4 223/3/4
f 222/5/4 220/5/4 223/5/4
f 223/3/4 221/3/4 224/3/4
f 225/6/4 226/6/4 227/6/4
f 227/6/4 226/6/4 228/6/4
f 227/1/4 228/1/4 229/1/4
f 229/1/4 228/1/4 230/1/4
f 229/6/4 230/6/4 231/6/4
f 231/6/4 230/6/4 232/6/4
f 233/1/4 234/1/4 235/1/4
f 235/1/4 234/1/4 236/1/4
f 236/1/4 234/1/4 237/1/4
f 235/6/4 236/6/4 238/6/4
f 236/4/4 237/4/4 239/4/4
f 238/6/4 236/6/4 239/6/4
f 239/4/4 237/4/4 240/4/4
f 238/1/4 239/1/4 241/1/4
f 239/1/4 240/1/4 241/1/4
f 241/1/4 240/1/4 242/1/4
f 242/1/4 240/1/4 243/1/4
f 241/6/4 242/6/4 244/6/4
f 242/4/4 243/4/4 245/4/4
f 244/6/4 242/6/4 245/6/4
f 245/4/4 243/4/4 246/4/4
f 244/1/4 245/1/4 247/1/4
f 245/1/4 246/1/4 247/1/4
f 247/1/4 246/1/4 248/1/4
f 249/5/4 250/5/4 253/5/4
f 250/3/4 251/3/4 254/3/4
f 253/5/4 250/5/4 254/5/4
f 254/3/4 251/3/4 255/3/4
f 252/6/4 253/6/4 256/6/4
f 253/6/4 254/6/4 256/6/4
f 254/6/4 255/6/4 256/6/4
f 256/6/4 255/6/4 257/6/4
f 252/6/4 256/6/4 258/6/4
f 256/4/4 257/4/4 258/4/4
f 257/6/4 255/6/4 259/6/4
f 258/4/4 257/4/4 259/4/4
f 252/6/4 258/6/4 260/6/4
f 258/6/4 259/6/4 260/6/4
f 260/6/4 259/6/4 261/6/4
f 259/6/4 255/6/4 262/6/4
f 261/6/4 259/6/4 262/6/4
f 255/3/4 251/3/4 263/3/4
f 262/6/4 255/6/4 263/6/4
f 261/5/4 262/5/4 265/5/4
f 262/3/4 263/3/4 266/3/4
f 265/5/4 262/5/4 266/5/4
f 263/3/4 251/3/4 267/3/4
f 266/3/4 263/3/4 267/3/4
f 264/6/4 265/6/4 268/6/4
f 265/6/4 266/6/4 268/6/4
f 266/6/4 267/6/4 268/6/4
f 268/6/4 267/6/4 269/6/4
f 264/6/4 268/6/4 270/6/4
f 268/4/4 269/4/4 270/4/4
f 269/6/4 267/6/4 271/6/4
f 270/4/4 269/4/4 271/4/4
f 264/6/4 270/6/4 272/6/4
f 270/6/4 271/6/4 272/6/4
f 272/6/4 271/6/4 273/6/4
f 271/6/4 267/6/4 274/6/4
f 273/6/4 271/6/4 274/6/4
f 267/3/4 251/3/4 275/3/4
f 274/6/4 267/6/4 275/6/4
f 273/5/4 274/5/4 276/5/4
f 274/3/4 275/3/4 277/3/4
f 276/5/4 274/5/4 277/5/4
f 275/3/4 251/3/4 278/3/4
f 277/3/4 275/3/4 278/3/4
f 283/6/5 280/6/5 279/6/5
f 284/6/5 280/6/5 283/6/5
f 285/6/5 282/6/5 281/6/5
f 286/6/5 282/6/5 285/6/5
f 291/6/5 288/6/5 287/6/5
f 292/6/5 288/6/5 291/6/5
f 293/6/5 290/6/5 289/6/5
f 294/6/5 290/6/5 293/6/5
f 301/5/5 296/5/5 295/5/5
f 302/5/5 298/5/5 297/5/5
f 303/5/5 298/5/5 302/5/5
f 304/5/5 300/5/5 299/5/5
f 305/5/5 300/5/5 304/5/5
f 306/5/5 301/5/5 295/5/5
f 310/5/5 300/5/5 305/5/5
f 311/5/5 306/5/5 295/5/5
f 312/5/5 306/5/5 311/5/5
f 313/5/5 308/5/5 307/5/5
f 314/5/5 308/5/5 313/5/5
f 315/5/5 310/5/5 309/5/5
f 316/5/5 300/5/5 310/5/5
f 316/5/5 310/5/5 315/5/5
f 322/3/5 318/3/5 317/3/5
f 322/3/5 321/3/5 320/3/5
f 322/3/5 320/3/5 319/3/5
f 322/3/5 319/3/5 318/3/5
f 323/3/5 321/3/5 322/3/5
f 324/3/5 323/3/5 322/3/5
f 325/3/5 323/3/5 324/3/5
f 326/3/5 325/3/5 324/3/5
f 327/3/5 325/3/5 326/3/5
f 328/3/5 325/3/5 327/3/5
f 329/3/5 325/3/5 328/3/5
f 330/3/5 325/3/5 329/3/5
f 335/4/5 332/4/5 331/4/5
f 335/4/5 334/4/5 333/4/5
f 335/4/5 333/4/5 332/4/5
f 336/4/5 334/4/5 335/4/5
f 337/4/5 334/4/5 336/4/5
f 338/4/5 334/4/5 337/4/5
f 339/3/6 340/3/6 341/3/6
f 341/3/6 340/3/6 342/3/6
f 342/3/6 340/3/6 343/3/6
f 343/3/6 340/3/6 344/3/6
f 344/3/6 340/3/6 345/3/6
f 345/3/6 340/3/6 346/3/6
f 339/3/6 341/3/6 347/3/6
f 347/3/6 341/3/6 348/3/6
f 346/3/6 340/3/6 353/3/6
f 353/3/6 340/3/6 354/3/6
f 347/2/6 348/2/6 355/2/6
f 355/2/6 348/2/6 356/2/6
f 351/2/6 352/2/6 357/2/6
f 349/2/6 350/2/6 357/2/6
f 350/2/6 351/2/6 357/2/6
f 357/2/6 352/2/6 358/2/6
f 358/2/6 352/2/6 359/2/6
f 359/2/6 352/2/6 360/2/6
f 353/2/6 354/2/6 361/2/6
f 361/2/6 354/2/6 362/2/6
f 355/3/6 356/3/6 363/3/6
f 361/3/6 362/3/6 368/3/6
f 366/3/6 367/3/6 369/3/6
f 367/3/6 368/3/6 369/3/6
f 355/3/6 363/3/6 369/3/6
f 363/3/6 364/3/6 369/3/6
f 365/3/6 366/3/6 369/3/6
f 364/3/6 365/3/6 369/3/6
f 368/3/6 362/3/6 370/3/6
f 369/3/6 368/3/6 370/3/6
f 371/1/6 372/1/6 377/1/6
f 372/4/6 373/4/6 378/4/6
f 377/1/6 372/1/6 378/1/6
f 373/1/6 374/1/6 379/1/6
f 378/4/6 373/4/6 379/4/6
f 374/4/6 375/4/6 380/4/6
f 379/1/6 374/1/6 380/1/6
f 375/1/6 376/1/6 381/1/6
f 380/4/6 375/4/6 381/4/6
f 381/1/6 376/1/6 382/1/6
f 379/4/6 380/4/6 383/4/6
f 377/4/6 378/4/6 383/4/6
f 381/4/6 382/4/6 383/4/6
f 380/4/6 381/4/6 383/4/6
f 378/4/6 379/4/6 383/4/6
f 383/4/6 382/4/6 384/4/6
f 384/4/6 382/4/6 385/4/6
f 385/4/6 382/4/6 386/4/6
f 386/4/6 382/4/6 387/4/6
f 387/4/6 382/4/6 388/4/6
f 383/1/6 384/1/6 389/1/6
f 384/4/6 385/4/6 390/4/6
f 389/1/6 384/1/6 390/1/6
f 385/1/6 386/1/6 391/1/6
f 390/4/6 385/4/6 391/4/6
f 386/4/6 387/4/6 392/4/6
f 391/1/6 386/1/6 392/1/6
f 387/1/6 388/1/6 393/1/6
f 392/4/6 387/4/6 393/4/6
f 393/1/6 388/1/6 394/1/6
